# xmcd CD database file
#
# Track frame offsets:
#	150
#	25629
#	47744
#	73719
#	100106
#	124688
#	148517
#	173850
#	196650
#	217618
#
# Disc length: 3224 seconds
#
# Revision: 1
# Processed by: cddbd v1.5.2PL0 Copyright (c) Steve Scherf et al.
# Submitted via: CDex 1.70beta1
#
DISCID=7e0c960a
DTITLE=Ultimix Records - Funkymix 126
DYEAR=2009
DGENRE=Funkymix
TTITLE0=Jay Sean - Down (Funkymix)
TTITLE1=Trey Songz - I Need A Girl (Funkymix)
TTITLE2=Beyonce Ft Kanye West - Ego (Funkymix)
TTITLE3=Kid Cudi Ft Kanye West - Make Her Say (Funkymix)
TTITLE4=Dorrough - Ice Cream Paint Job (Funkymix)
TTITLE5=Jordin Sparks - Battlefield (Funkymix)
TTITLE6=Sean Kingston - Face Drop (Funkymix)
TTITLE7=GS Boyz - Booty Dew (Funkymix)
TTITLE8=Paradiso Girls - Patron Tequila (Funkymix)
TTITLE9=Jadya Maria Ft Flo Rida - Good Girls Like Bad Boys (Funkymix)
EXTD=YEAR: 2009
EXTT0=
EXTT1=
EXTT2=
EXTT3=
EXTT4=
EXTT5=
EXTT6=
EXTT7=
EXTT8=
EXTT9=
PLAYORDER=
